<svg xmlns="http://www.w3.org/2000/svg" xmlns:xlink="http://www.w3.org/1999/xlink" width="500" zoomAndPan="magnify" viewBox="0 0 375 374.999991" height="500" preserveAspectRatio="xMidYMid meet" version="1.0"><defs><g/><clipPath id="9d0f9c740e"><path d="M 56.488281 151.464844 L 318.167969 151.464844 L 318.167969 223.464844 L 56.488281 223.464844 Z M 56.488281 151.464844 " clip-rule="nonzero"/></clipPath><clipPath id="28c2d48c8b"><path d="M 63.558594 158.238281 L 187.332031 158.238281 L 187.332031 216.761719 L 63.558594 216.761719 Z M 63.558594 158.238281 " clip-rule="nonzero"/></clipPath></defs><g clip-path="url(#9d0f9c740e)"><path stroke-linecap="butt" transform="matrix(0.75, 0, 0, 0.75, 56.489269, 151.465449)" fill="none" stroke-linejoin="miter" d="M -0.00131672 -0.000807338 L 348.904956 -0.000807338 L 348.904956 96.092949 L -0.00131672 96.092949 Z M -0.00131672 -0.000807338 " stroke="#000000" stroke-width="6" stroke-opacity="1" stroke-miterlimit="4"/></g><g clip-path="url(#28c2d48c8b)"><path fill="#000000" d="M 63.558594 158.238281 L 187.238281 158.238281 L 187.238281 216.761719 L 63.558594 216.761719 Z M 63.558594 158.238281 " fill-opacity="1" fill-rule="nonzero"/></g><g fill="#ffffff" fill-opacity="1"><g transform="translate(82.813789, 196.618259)"><g><path d="M 2.863281 0 L 5.335938 0 L 5.335938 -7.050781 L 9.660156 -7.050781 L 14.464844 0 L 17.441406 0 L 12.5 -7.304688 C 15.363281 -8.003906 17.132812 -10.167969 17.132812 -13.339844 C 17.132812 -17.246094 14.4375 -19.660156 10.363281 -19.660156 L 2.863281 -19.660156 Z M 5.335938 -9.410156 L 5.335938 -17.300781 L 10.082031 -17.300781 C 12.949219 -17.300781 14.605469 -15.839844 14.605469 -13.339844 C 14.605469 -10.839844 12.949219 -9.410156 10.082031 -9.410156 Z M 5.335938 -9.410156 "/></g></g></g><g fill="#ffffff" fill-opacity="1"><g transform="translate(104.069764, 196.618259)"><g><path d="M 10.222656 0.335938 C 14.96875 0.335938 17.835938 -2.78125 17.835938 -8.003906 L 17.835938 -19.660156 L 15.363281 -19.660156 L 15.363281 -8.171875 C 15.363281 -4.15625 13.59375 -2.078125 10.222656 -2.078125 C 6.882812 -2.078125 5.082031 -4.15625 5.082031 -8.171875 L 5.082031 -19.660156 L 2.640625 -19.660156 L 2.640625 -8.003906 C 2.640625 -2.78125 5.476562 0.335938 10.222656 0.335938 Z M 10.222656 0.335938 "/></g></g></g><g fill="#ffffff" fill-opacity="1"><g transform="translate(126.673486, 196.618259)"><g><path d="M 9.410156 0.363281 C 13.707031 0.363281 16.488281 -1.742188 16.488281 -5.167969 C 16.488281 -8.0625 14.550781 -9.800781 9.523438 -11.039062 C 5.703125 -11.964844 4.4375 -12.976562 4.4375 -14.605469 C 4.4375 -16.488281 6.125 -17.667969 8.933594 -17.667969 C 11.824219 -17.667969 13.621094 -16.207031 13.679688 -13.847656 L 16.121094 -13.847656 C 16.09375 -17.667969 13.339844 -20.027344 8.933594 -20.027344 C 4.632812 -20.027344 1.910156 -17.917969 1.910156 -14.605469 C 1.910156 -11.570312 4.074219 -9.886719 8.902344 -8.734375 C 12.441406 -7.894531 13.929688 -6.910156 13.929688 -5.082031 C 13.929688 -3.144531 12.191406 -1.996094 9.410156 -1.996094 C 6.347656 -1.996094 4.214844 -3.511719 4.15625 -6.039062 L 1.683594 -6.039062 C 1.714844 -2.191406 4.71875 0.363281 9.410156 0.363281 Z M 9.410156 0.363281 "/></g></g></g><g fill="#ffffff" fill-opacity="1"><g transform="translate(146.974805, 196.618259)"><g><path d="M 15.757812 0 L 18.230469 0 L 18.230469 -19.660156 L 15.757812 -19.660156 L 15.757812 -11.207031 L 5.335938 -11.207031 L 5.335938 -19.660156 L 2.863281 -19.660156 L 2.863281 0 L 5.335938 0 L 5.335938 -8.847656 L 15.757812 -8.847656 Z M 15.757812 0 "/></g></g></g><g fill="#000000" fill-opacity="1"><g transform="translate(201.474214, 196.769512)"><g><path d="M 11.261719 0.421875 C 16.683594 0.421875 20.785156 -2.863281 21.625 -7.863281 L 15.867188 -7.863281 C 15.167969 -6.011719 13.507812 -4.832031 11.375 -4.832031 C 8.621094 -4.832031 6.710938 -6.882812 6.710938 -9.832031 C 6.710938 -12.808594 8.652344 -14.828125 11.429688 -14.828125 C 13.480469 -14.828125 15.195312 -13.679688 15.785156 -11.910156 L 21.515625 -11.910156 C 20.503906 -16.878906 16.457031 -20.082031 11.207031 -20.082031 C 5.140625 -20.082031 0.953125 -15.898438 0.953125 -9.832031 C 0.953125 -3.761719 5.140625 0.421875 11.261719 0.421875 Z M 11.261719 0.421875 "/></g></g></g><g fill="#000000" fill-opacity="1"><g transform="translate(223.998391, 196.769512)"><g><path d="M 11.65625 0.421875 C 17.917969 0.421875 22.355469 -3.820312 22.355469 -9.832031 C 22.355469 -15.839844 17.917969 -20.082031 11.65625 -20.082031 C 5.394531 -20.082031 0.953125 -15.839844 0.953125 -9.832031 C 0.953125 -3.820312 5.394531 0.421875 11.65625 0.421875 Z M 6.710938 -9.832031 C 6.710938 -12.78125 8.761719 -14.828125 11.65625 -14.828125 C 14.578125 -14.828125 16.597656 -12.78125 16.597656 -9.832031 C 16.597656 -6.882812 14.578125 -4.832031 11.65625 -4.832031 C 8.761719 -4.832031 6.710938 -6.882812 6.710938 -9.832031 Z M 6.710938 -9.832031 "/></g></g></g><g fill="#000000" fill-opacity="1"><g transform="translate(247.337042, 196.769512)"><g><path d="M 2.078125 0 L 10.421875 0 C 16.769531 0 20.980469 -3.902344 20.980469 -9.832031 C 20.980469 -15.730469 16.769531 -19.660156 10.421875 -19.660156 L 2.078125 -19.660156 Z M 7.75 -5.082031 L 7.75 -14.578125 L 10.25 -14.578125 C 13.257812 -14.578125 15.195312 -12.722656 15.195312 -9.832031 C 15.195312 -6.9375 13.257812 -5.082031 10.25 -5.082031 Z M 7.75 -5.082031 "/></g></g></g><g fill="#000000" fill-opacity="1"><g transform="translate(269.271433, 196.769512)"><g><path d="M 2.078125 0 L 15.867188 0 L 15.867188 -4.632812 L 7.695312 -4.632812 L 7.695312 -7.667969 L 14.800781 -7.667969 L 14.800781 -12.21875 L 7.695312 -12.21875 L 7.695312 -15.082031 L 15.558594 -15.082031 L 15.558594 -19.660156 L 2.078125 -19.660156 Z M 2.078125 0 "/></g></g></g><g fill="#000000" fill-opacity="1"><g transform="translate(286.403288, 196.769512)"><g><path d="M 9.128906 0.421875 C 14.015625 0.421875 16.90625 -1.882812 16.90625 -5.757812 C 16.90625 -9.015625 14.800781 -10.925781 10.027344 -11.992188 C 7.5 -12.554688 6.574219 -13.171875 6.574219 -14.183594 C 6.574219 -15.140625 7.414062 -15.730469 8.734375 -15.730469 C 10.308594 -15.730469 11.207031 -14.914062 11.207031 -13.425781 L 16.542969 -13.425781 C 16.542969 -17.46875 13.453125 -20.082031 8.621094 -20.082031 C 3.988281 -20.082031 1.125 -17.777344 1.125 -14.070312 C 1.125 -10.757812 3.285156 -8.707031 7.722656 -7.863281 C 10.109375 -7.386719 11.261719 -6.65625 11.261719 -5.53125 C 11.261719 -4.550781 10.421875 -3.988281 9.042969 -3.988281 C 7.414062 -3.988281 6.460938 -4.859375 6.460938 -6.375 L 0.984375 -6.375 C 0.984375 -2.132812 4.015625 0.421875 9.128906 0.421875 Z M 9.128906 0.421875 "/></g></g></g></svg>